<svg width="32" height="32" fill="none" xmlns="http://www.w3.org/2000/svg"><path d="M29.55 13.031c-.126.188-.282.292-.47.313-.187 0-.333-.031-.437-.094L18.049 5.844a3.124 3.124 0 0 0-1.719-.5c-.625 0-1.198.166-1.718.5L4.018 13.25a.804.804 0 0 1-.5.094.57.57 0 0 1-.406-.313.6.6 0 0 1-.094-.5.588.588 0 0 1 .281-.406l10.625-7.406A4.291 4.291 0 0 1 16.33 4c.875 0 1.677.24 2.407.719l10.625 7.406c.145.083.24.219.28.406a.6.6 0 0 1-.093.5zm-2.563 1.438V24c0 1.104-.396 2.052-1.188 2.844-.77.77-1.708 1.156-2.812 1.156H9.674a3.933 3.933 0 0 1-2.844-1.156A3.933 3.933 0 0 1 5.674 24v-9.531l8.25-5.75A4.291 4.291 0 0 1 16.33 8c.875 0 1.677.24 2.407.719l8.25 5.75zm-8 12.219V20h-5.313v6.688h5.313zm6.687-11.532L18.05 9.844a3.124 3.124 0 0 0-1.719-.5c-.625 0-1.198.166-1.718.5l-7.625 5.312V24c0 .75.26 1.385.78 1.906.522.521 1.157.782 1.907.782h2.656V20c0-.354.125-.656.375-.906.271-.271.594-.407.97-.407h5.312c.375 0 .687.136.937.407.27.25.406.552.406.906v6.688h2.657c.75 0 1.385-.26 1.906-.782.52-.52.781-1.156.781-1.906v-8.844z" fill="#EC7000"/></svg>