<svg width="24" height="24" fill="none" xmlns="http://www.w3.org/2000/svg"><path d="M8.72 20.068l.537 1.182-6.639-2.428a.922.922 0 0 1-.537-.472.934.934 0 0 1-.022-.71l2.428-6.638.537 1.16-2.105 5.8 5.8 2.106zM3.929 6.404l6.338 13.578v-2.17l-5.5-11.794 5.5-2.579V2.43L4.38 5.18a.844.844 0 0 0-.473.516.934.934 0 0 0 .022.71zm11.408 13.922h-3.244V2.902h7.326v9.41l.021.022h.022c.143.1.272.215.387.344.114.114.214.243.3.386 0 .015.015.058.043.13.043.071.093.164.15.279V2.903a.817.817 0 0 0-.279-.624A.84.84 0 0 0 19.42 2h-7.326a.91.91 0 0 0-.666.28.849.849 0 0 0-.258.622v17.424c0 .258.086.473.258.645a.91.91 0 0 0 .666.279h3.996l-.086-.086-.086-.086a3.906 3.906 0 0 1-.322-.365 1.823 1.823 0 0 1-.258-.387zm5.93-1.826c0 .358-.072.709-.215 1.053a2.833 2.833 0 0 1-1.504 1.482 2.56 2.56 0 0 1-1.031.215c-.373 0-.73-.072-1.075-.215a2.837 2.837 0 0 1-.88-.601 2.833 2.833 0 0 1-.602-.881 2.976 2.976 0 0 1-.194-1.053c0-.2.05-.516.15-.945.116-.43.395-1.132.839-2.106.229-.515.437-.967.623-1.353.2-.387.308-.588.322-.602a.801.801 0 0 1 .322-.365c.158-.086.323-.129.495-.129.171 0 .329.043.472.129a.94.94 0 0 1 .344.365l.021.065c.03.043.058.1.086.171h.022v.043h.021v.043h.022v.065h.021v.021h.022c.086.187.193.416.322.688.129.258.258.544.387.86.444.973.723 1.675.838 2.105.114.43.172.744.172.945zm-.924 0c0-.258-.093-.645-.28-1.16a33.95 33.95 0 0 0-.644-1.504c-.23-.516-.437-.967-.623-1.354l-.28-.58-.3.58c-.187.387-.394.838-.623 1.354-.23.501-.437 1.002-.623 1.504-.2.515-.301.902-.301 1.16 0 .501.179.931.537 1.29.358.357.795.536 1.31.536.502 0 .932-.179 1.29-.537.358-.358.537-.788.537-1.289z" fill="#EC7000"/></svg>